<svg id="Capa_1" data-name="Capa 1" xmlns="http://www.w3.org/2000/svg" viewBox="0 0 673.53 151.64"><defs><style>.cls-1{fill:#fffbfa;}</style></defs><path class="cls-1" d="M2.56,120.32l84.64,27.5-52.31-72Z"/><path class="cls-1" d="M2.56,31.32l32.33,44.5,52.31-72Z"/><path class="cls-1" d="M87.2,3.82v144l52.3-72Z"/><path class="cls-1" d="M217.62,20.83h77V37.66H237.35V65.49h51.88V82.32H237.35V114h57.81v16.83H217.62Z"/><path class="cls-1" d="M432,78v52.82h-19.3v-48c0-10-5.37-16.54-14.37-16.54-11.75,0-18.86,10.74-18.86,29.31V130.8h-19.3v-48c0-10-5.23-16.54-14.37-16.54-11.61,0-18.72,10.59-18.72,29.31V130.8h-19.3V50.42h19.3V61.3c3.78-6.39,13.06-12,24.24-12s20.6,5.51,24.67,14.95a33.37,33.37,0,0,1,27.86-14.95C420.24,49.26,432,60.72,432,78Z"/><path class="cls-1" d="M467.82,120.5v10.31h-19.3V27.51l19.3-6.37V60.72c4.94-7,14.66-11.46,25.4-11.46,22.78,0,38.45,16.1,38.45,41.36S516,132,492.92,132c-10.59,0-20.17-4.49-25.1-11.46ZM490,115.42c13.06,0,22.2-10,22.2-24.82S503.09,65.65,490,65.65,467.82,75.8,467.82,90.6,477,115.42,490,115.42Z"/><path class="cls-1" d="M542,108.75c0-15,10.45-23.94,34.1-26.41l18-2V78.72c0-9.15-6.68-14.51-16.4-14.51s-16.11,5.22-17.12,14.22H542c2-16.83,16.4-29.17,35.69-29.17,20.75,0,35.56,11.32,35.56,31.64v49.91H594.07V120.22C590.3,127.33,580.72,132,569.84,132c-17.27,0-27.86-9.13-27.86-23.21Zm31.2,8.42c12.34,0,20.9-8.42,20.9-22.64l-17.71,1.88c-10.3,1.17-15.09,5.38-15.09,11.61C561.27,113.39,566.06,117.17,573.17,117.17Z"/><path class="cls-1" d="M633.39,105.41V66.08H621.78V50.41h11.61v-18l19.3-6.36V50.41H670V66.08H652.69v37.58c0,7.55,4.06,11.61,10.16,11.61a27.13,27.13,0,0,0,8.12-1.59v16.25a31.44,31.44,0,0,1-10.74,1.89C645,131.82,633.39,122.53,633.39,105.41Z"/></svg>